<?xml version="1.0" standalone="no"?>
<!DOCTYPE svg PUBLIC "-//W3C//DTD SVG 20010904//EN"
 "http://www.w3.org/TR/2001/REC-SVG-20010904/DTD/svg10.dtd">
<svg version="1.0" xmlns="http://www.w3.org/2000/svg"
 width="1080.000000pt" height="1080.000000pt" viewBox="0 0 1080.000000 1080.000000"
 preserveAspectRatio="xMidYMid meet">

<g transform="translate(0.000000,1080.000000) scale(0.100000,-0.100000)"
fill="#000000" stroke="none">
<path d="M4891 8383 c-81 -25 -145 -90 -160 -163 -8 -39 -11 -420 -9 -1345 l3
-1290 22 -41 c46 -86 139 -129 261 -122 85 5 128 22 180 72 66 62 62 -32 62
1415 0 1258 -1 1318 -19 1356 -10 22 -29 50 -42 62 -66 61 -201 86 -298 56z"/>
<path d="M5737 8389 c-50 -12 -107 -42 -134 -71 -56 -59 -53 15 -53 -1412 0
-903 3 -1324 11 -1343 14 -38 66 -90 114 -116 54 -28 177 -35 239 -14 62 21
113 62 139 111 l22 41 3 1290 c2 925 -1 1306 -9 1345 -26 126 -180 205 -332
169z"/>
<path d="M4060 7411 c-78 -25 -132 -75 -150 -139 -8 -25 -10 -290 -8 -848 l3
-810 28 -43 c54 -82 197 -120 326 -87 79 20 127 55 152 110 18 39 19 82 19
853 0 550 -3 821 -11 840 -14 38 -56 81 -104 106 -31 16 -62 21 -135 24 -52 1
-106 -1 -120 -6z"/>
<path d="M6530 7411 c-68 -21 -114 -59 -144 -118 -14 -29 -16 -118 -16 -873 0
-921 -3 -876 61 -938 47 -46 120 -65 228 -60 123 6 190 45 226 130 13 33 15
141 15 868 0 728 -2 835 -16 868 -36 88 -122 133 -252 131 -42 0 -88 -4 -102
-8z"/>
<path d="M3196 6385 c-45 -16 -90 -56 -106 -94 -7 -19 -10 -134 -8 -367 3
-337 3 -339 26 -372 44 -60 91 -76 227 -77 73 0 134 5 156 13 48 17 96 66 109
110 14 51 13 626 -1 677 -14 50 -64 100 -114 114 -56 15 -242 13 -289 -4z"/>
<path d="M7311 6387 c-47 -15 -97 -65 -110 -112 -15 -54 -15 -676 0 -730 14
-50 64 -100 114 -114 50 -14 228 -14 277 -1 44 13 93 52 113 91 22 42 22 736
0 778 -20 39 -69 78 -113 91 -48 13 -237 11 -281 -3z"/>
<path d="M2754 5049 c-186 -18 -349 -94 -472 -221 -89 -92 -145 -192 -178
-318 -24 -90 -24 -282 -1 -370 94 -352 403 -567 787 -546 174 9 327 58 455
146 l45 31 -2 282 -3 282 -100 0 -100 0 -5 -235 -5 -235 -58 -28 c-215 -104
-502 -59 -665 105 -105 104 -153 224 -153 383 0 162 43 267 151 375 112 112
233 160 409 160 148 0 272 -42 371 -128 l42 -35 66 67 67 67 -55 50 c-139 126
-366 191 -596 168z"/>
<path d="M8099 5050 c-271 -26 -435 -168 -447 -387 -6 -114 15 -178 84 -253
81 -87 127 -106 471 -201 216 -58 288 -106 300 -196 11 -83 -40 -165 -126
-202 -177 -76 -465 -33 -643 94 l-49 36 -38 -83 c-45 -96 -46 -93 54 -153 130
-78 335 -122 514 -112 214 13 360 81 439 205 96 150 76 345 -46 453 -79 69
-175 108 -420 169 -256 64 -332 118 -332 236 0 100 82 180 209 204 141 26 314
1 445 -66 38 -19 73 -31 77 -27 7 7 69 150 69 159 0 9 -96 57 -156 78 -124 42
-272 59 -405 46z"/>
<path d="M4191 5023 c-5 -10 -149 -328 -321 -708 -172 -379 -314 -694 -317
-698 -2 -4 46 -6 108 -5 l113 3 76 172 75 173 376 0 376 0 76 -172 76 -173
110 -3 c61 -1 111 0 111 4 0 3 -145 325 -321 715 l-322 709 -103 0 c-88 0
-105 -3 -113 -17z m402 -885 c-7 -13 -583 -10 -583 3 0 6 57 140 126 298 70
157 135 306 146 331 l19 44 148 -334 c82 -184 146 -338 144 -342z"/>
<path d="M4980 4945 l0 -95 245 0 245 0 0 -620 0 -620 105 0 105 0 0 620 0
620 245 0 245 0 0 95 0 95 -595 0 -595 0 0 -95z"/>
<path d="M6380 4325 l0 -715 520 0 520 0 0 90 0 90 -412 2 -413 3 -3 223 -2
222 360 0 361 0 -3 93 -3 92 -357 3 -358 2 0 210 0 210 400 0 400 0 0 95 0 95
-505 0 -505 0 0 -715z"/>
<path d="M6083 3289 c-23 -8 -43 -38 -43 -63 0 -20 36 -21 44 -1 7 20 28 19
69 -5 47 -28 84 -18 103 26 18 44 18 44 -11 44 -16 0 -25 -6 -25 -15 0 -25
-27 -28 -57 -8 -39 27 -55 32 -80 22z"/>
<path d="M3681 3169 c-72 -22 -111 -67 -111 -129 0 -67 35 -100 140 -131 95
-28 127 -44 135 -69 23 -73 -110 -104 -217 -49 -40 21 -42 21 -55 3 -8 -10
-12 -25 -11 -33 6 -27 80 -56 156 -59 131 -7 202 40 202 134 0 62 -37 96 -131
124 -109 31 -130 41 -138 64 -21 54 31 92 115 83 28 -3 66 -13 83 -21 31 -16
31 -16 41 9 6 15 10 31 10 36 0 30 -156 57 -219 38z"/>
<path d="M4180 3174 c-121 -22 -202 -115 -204 -233 -2 -143 98 -241 245 -241
36 0 83 7 102 15 191 79 198 353 12 436 -44 19 -116 30 -155 23z m103 -78 c74
-27 110 -80 110 -163 0 -97 -71 -165 -173 -165 -130 0 -210 130 -150 246 40
79 127 112 213 82z"/>
<path d="M5640 3173 c-78 -13 -149 -64 -181 -130 -27 -56 -29 -148 -5 -205 22
-52 81 -105 138 -126 45 -15 49 -19 44 -43 -4 -23 -1 -27 25 -33 43 -8 31 -31
-15 -32 -51 -1 -70 -29 -29 -45 52 -20 123 11 123 53 0 28 -18 58 -35 58 -8 0
-15 6 -15 14 0 8 17 16 45 19 41 6 125 49 125 64 0 4 -10 17 -21 29 l-21 23
-38 -25 c-43 -28 -130 -35 -172 -13 -83 43 -120 139 -84 222 41 96 174 135
257 76 34 -24 42 -24 65 2 19 21 18 21 -9 45 -29 24 -116 55 -151 53 -12 -1
-32 -4 -46 -6z"/>
<path d="M6091 3170 c-116 -24 -185 -112 -185 -236 0 -62 3 -78 30 -120 42
-69 107 -107 190 -112 121 -8 206 37 250 132 87 187 -76 378 -285 336z m148
-85 c47 -24 74 -71 79 -135 9 -120 -82 -200 -202 -179 -171 30 -184 276 -17
330 34 11 104 3 140 -16z"/>
<path d="M7023 3170 c-72 -17 -116 -66 -116 -130 0 -74 34 -102 162 -138 81
-23 111 -44 111 -77 0 -62 -120 -82 -213 -36 -26 13 -49 22 -51 20 -2 -2 -9
-15 -16 -28 -13 -26 -13 -27 45 -58 46 -26 190 -29 234 -6 50 26 76 66 76 119
0 64 -37 97 -143 128 -99 29 -132 48 -132 80 0 55 89 82 176 52 61 -20 59 -21
73 11 14 31 9 36 -63 58 -53 16 -92 18 -143 5z"/>
<path d="M4560 2935 l0 -235 165 0 165 0 0 35 0 35 -125 0 -125 0 0 200 0 200
-40 0 -40 0 0 -235z"/>
<path d="M4942 3002 c4 -155 6 -171 29 -212 34 -63 89 -91 174 -91 88 0 140
28 174 94 23 45 25 63 29 213 l5 164 -41 0 -41 0 -3 -164 c-3 -188 -12 -210
-85 -234 -50 -16 -107 1 -137 41 -19 26 -21 45 -24 193 l-4 164 -40 0 -41 0 5
-168z"/>
<path d="M6490 2935 l0 -235 175 0 175 0 0 35 0 35 -135 0 -135 0 0 70 0 70
115 0 115 0 0 30 0 30 -115 0 -115 0 0 65 0 64 128 3 127 3 3 33 3 32 -170 0
-171 0 0 -235z"/>
</g>
</svg>
